<?xml version="1.0" standalone="no"?>
<!DOCTYPE svg PUBLIC "-//W3C//DTD SVG 20010904//EN"
 "http://www.w3.org/TR/2001/REC-SVG-20010904/DTD/svg10.dtd">
<svg version="1.0" xmlns="http://www.w3.org/2000/svg"
 width="1133.000000pt" height="1280.000000pt" viewBox="0 0 1133.000000 1280.000000"
 preserveAspectRatio="xMidYMid meet">
<g transform="translate(0.000000,1280.000000) scale(0.100000,-0.100000)"
fill="#000000" stroke="none">
<path d="M9370 12759 c0 -6 31 -59 69 -117 115 -175 151 -281 172 -499 36
-365 -101 -878 -300 -1125 -76 -95 -283 -295 -391 -379 -446 -348 -1079 -622
-1895 -824 -569 -140 -649 -161 -795 -208 -357 -114 -820 -324 -1098 -498
-251 -156 -472 -348 -607 -527 -162 -215 -309 -625 -360 -1007 -19 -138 -22
-400 -6 -494 7 -47 7 -68 0 -78 -14 -17 -105 -17 -115 -1 -5 7 -14 67 -20 134
-14 136 -30 184 -68 209 -24 16 -32 16 -138 -4 -195 -36 -339 -52 -898 -101
-421 -37 -569 -53 -769 -86 -409 -66 -674 -157 -779 -268 -121 -128 -131 -244
-35 -395 20 -31 84 -114 143 -186 128 -156 155 -195 207 -300 71 -141 139
-323 282 -746 224 -667 395 -1163 513 -1484 369 -1006 464 -1348 522 -1880 27
-241 50 -352 90 -441 104 -228 499 -387 1075 -435 178 -15 597 -6 801 16 329
35 715 116 938 197 l94 33 30 70 c88 207 133 350 163 520 8 49 19 93 23 97 5
5 37 13 73 19 159 26 267 116 393 330 163 276 182 305 256 379 51 52 135 116
266 204 428 285 830 644 1077 961 191 245 323 522 371 775 21 110 22 335 1
455 -44 254 -149 464 -300 603 -161 147 -409 216 -552 153 -113 -50 -180 -168
-267 -466 -69 -237 -150 -404 -181 -373 -9 9 10 106 70 358 64 269 85 401 85
544 l0 106 -32 20 c-18 11 -42 20 -53 20 -35 1 -103 37 -110 60 -14 45 70 101
298 200 111 48 189 111 218 175 27 58 26 185 -2 241 -65 135 -329 289 -687
400 -403 125 -757 176 -1228 178 l-282 1 -48 -41 c-68 -57 -117 -125 -140
-192 l-19 -57 -71 -3 c-54 -2 -73 1 -77 11 -3 8 6 56 19 107 13 50 24 109 24
129 0 20 9 50 20 68 28 46 278 294 395 391 397 331 762 552 1655 1002 699 352
894 463 1155 660 151 114 255 206 255 226 0 8 -2 14 -5 14 -3 0 -42 -28 -87
-61 -181 -134 -450 -274 -773 -403 -104 -41 -392 -147 -640 -234 -659 -233
-912 -338 -1168 -483 -572 -324 -876 -736 -953 -1292 -9 -62 -20 -118 -26
-124 -13 -16 -634 -18 -658 -3 -12 8 -15 37 -14 167 2 176 13 280 49 428 69
292 214 577 418 822 59 71 97 105 174 156 181 121 334 193 582 276 217 73 372
111 836 205 724 147 1120 256 1541 422 428 169 651 300 1044 615 299 240 491
379 520 379 17 0 11 -28 -25 -121 -68 -176 -171 -352 -294 -503 -135 -165
-392 -387 -642 -554 -121 -81 -800 -501 -949 -587 -191 -111 -351 -188 -615
-300 -271 -114 -400 -178 -513 -251 -134 -87 -252 -214 -199 -214 22 0 840
225 1052 290 743 226 1239 439 1660 715 644 421 995 947 1086 1625 20 147 17
408 -5 505 -26 112 -88 245 -115 245 -5 0 -16 -37 -25 -82 -42 -199 -93 -345
-153 -436 -37 -56 -104 -109 -122 -97 -15 9 -13 16 101 365 109 334 131 416
153 565 67 459 -119 818 -550 1065 -94 54 -115 63 -115 49z m-3040 -5685 c367
-29 643 -90 832 -185 57 -29 75 -44 61 -52 -9 -6 -264 43 -378 72 -101 25
-338 63 -565 91 -345 42 -525 74 -513 92 7 13 291 4 563 -18z m-4375 -176 c14
-6 38 -32 55 -58 16 -25 41 -57 55 -70 14 -13 25 -27 25 -32 0 -4 -21 -19 -47
-33 -27 -14 -55 -30 -64 -37 -61 -43 -116 109 -75 207 17 40 16 39 51 23z
m794 -8 c-19 -11 -137 -26 -128 -16 7 8 83 23 119 25 20 0 22 -1 9 -9z m-1091
-140 c237 -255 517 -390 877 -421 88 -8 134 -16 132 -23 -2 -6 -28 -20 -58
-30 -79 -28 -346 -27 -514 2 -310 54 -427 115 -516 267 -58 99 -89 261 -57
293 24 24 45 10 136 -88z m269 -489 c835 -279 2204 -379 3898 -286 492 27 532
28 512 11 -22 -17 -218 -66 -387 -96 -640 -114 -1617 -125 -2605 -30 -236 23
-744 81 -968 111 -255 34 -397 79 -503 159 -72 54 -149 180 -110 180 8 0 82
-22 163 -49z m356 -440 c52 -20 284 -51 522 -71 438 -36 609 -65 750 -129 66
-30 78 -44 49 -55 -44 -17 -622 -1 -894 24 -178 17 -454 52 -477 61 -21 8 -23
15 -23 94 0 83 0 85 24 85 14 0 36 -4 49 -9z m257 -361 c296 -73 356 -83 500
-79 255 7 294 5 330 -17 39 -23 75 -77 66 -100 -6 -14 -50 -15 -429 -11 -450
5 -550 13 -701 61 l-71 22 -3 79 c-2 43 0 85 3 93 7 20 68 10 305 -48z m5655
-157 c96 -31 188 -160 216 -301 16 -86 6 -275 -20 -377 -30 -117 -126 -301
-223 -430 -51 -67 -186 -215 -348 -380 -146 -149 -290 -304 -322 -345 -54 -72
-59 -76 -142 -109 -311 -123 -582 -380 -851 -805 -104 -166 -117 -166 -70 -1
78 272 193 580 400 1065 200 471 293 706 369 937 l38 113 63 30 c94 45 157
109 290 294 159 223 227 285 355 321 65 18 170 13 245 -12z m-5695 -167 c69
-8 226 -20 350 -26 281 -14 392 -25 500 -52 90 -22 210 -71 210 -86 0 -11
-452 -27 -745 -27 -228 0 -313 13 -425 62 -64 28 -80 45 -80 89 0 52 9 67 39
60 14 -3 82 -12 151 -20z m-50 -306 c109 -30 280 -50 635 -75 226 -16 404 -36
510 -58 107 -22 67 -55 -94 -79 -53 -7 -177 -8 -406 -2 -181 5 -406 9 -500 9
l-170 0 -22 60 c-12 33 -22 81 -22 108 -1 52 4 55 69 37z m280 -380 c102 -5
264 -15 360 -20 267 -16 418 -44 539 -101 44 -20 61 -33 54 -40 -20 -20 -216
-31 -433 -25 -118 3 -322 9 -454 13 l-238 6 -39 60 c-22 33 -39 70 -39 82 0
28 20 47 45 41 11 -3 103 -10 205 -16z m241 -355 c197 -16 624 -62 646 -70 39
-14 -37 -64 -137 -90 -66 -17 -240 -17 -640 0 -168 8 -165 7 -186 61 -9 25
-26 56 -36 70 -11 13 -16 28 -13 34 9 14 143 12 366 -5z m134 -320 c344 -26
585 -67 585 -100 0 -23 -69 -63 -140 -81 -57 -15 -97 -16 -330 -8 -146 4 -297
7 -337 5 -80 -3 -84 1 -98 74 -3 21 -15 56 -25 76 -11 20 -16 39 -13 43 10 10
147 7 358 -9z m-100 -357 c58 -16 120 -21 370 -28 181 -5 316 -13 340 -20 56
-17 107 -44 129 -69 18 -20 18 -21 -5 -30 -63 -23 -256 -36 -549 -36 -323 1
-360 6 -360 45 0 11 -12 48 -26 81 -29 69 -26 95 9 84 12 -4 54 -16 92 -27z
m290 -387 c66 -6 277 -15 470 -21 220 -6 353 -14 360 -21 14 -15 -37 -54 -105
-80 -94 -36 -196 -49 -440 -59 -129 -5 -276 -12 -326 -15 l-91 -6 -41 68 c-71
118 -68 167 11 152 23 -4 96 -12 162 -18z m400 -351 c387 -7 467 -11 514 -26
21 -7 -14 -41 -73 -71 -140 -71 -423 -97 -806 -74 l-105 6 -6 40 c-3 22 -10
50 -17 62 -26 47 -6 89 38 78 14 -3 219 -10 455 -15z m-5 -330 c259 -20 489
-45 498 -55 12 -11 -11 -36 -55 -58 -172 -87 -449 -107 -719 -52 -125 26 -128
29 -132 104 -4 94 -4 95 76 88 37 -4 186 -16 332 -27z m60 -321 c268 -20 355
-30 454 -54 81 -18 116 -32 116 -45 0 -16 -93 -56 -175 -77 -88 -21 -373 -24
-485 -4 -101 18 -249 66 -291 94 -30 20 -34 29 -37 71 l-3 49 83 -7 c46 -4
198 -16 338 -27z m-185 -348 c238 -50 455 -81 745 -106 189 -16 619 -35 786
-35 56 0 105 -4 108 -8 7 -11 -40 -55 -79 -75 -94 -46 -330 -71 -690 -70 -386
0 -678 30 -965 99 -114 27 -150 45 -150 73 0 11 -13 45 -30 76 -53 101 -40
121 63 94 40 -10 135 -32 212 -48z"/>
<path d="M7900 4832 c-358 -269 -560 -536 -673 -888 -37 -117 -74 -290 -64
-301 10 -10 127 43 216 98 103 64 194 132 313 236 83 73 96 88 107 130 18 71
58 123 137 175 69 47 72 50 123 157 28 60 61 135 72 167 22 65 35 192 25 247
-6 31 -11 36 -44 41 -111 20 -99 23 -212 -62z"/>
<path d="M10183 11656 c3 -8 47 -81 98 -163 113 -180 170 -295 206 -410 25
-83 27 -100 27 -283 0 -165 -3 -211 -22 -298 -91 -418 -320 -811 -686 -1178
-328 -327 -731 -584 -1474 -938 -79 -38 -141 -71 -138 -73 6 -6 255 22 456 53
846 127 1496 369 1912 711 307 253 594 728 703 1163 57 227 73 400 50 554 -39
272 -101 403 -267 562 -130 125 -285 211 -474 264 -165 47 -403 68 -391 36z"/>
<path d="M2245 2124 c-875 -57 -1847 -296 -2069 -509 -71 -67 -130 -161 -158
-247 -22 -68 -22 -69 -4 -136 35 -134 115 -237 252 -325 152 -98 278 -149 705
-287 534 -172 760 -231 1117 -290 96 -16 211 -41 256 -54 202 -61 551 -136
749 -161 398 -49 753 -75 1016 -75 153 0 203 -4 410 -31 42 -5 78 -6 85 0 6 4
85 11 176 15 91 3 215 13 275 21 61 8 175 15 255 15 173 0 425 15 605 35 72 8
195 20 275 25 209 15 300 32 535 99 239 67 246 69 530 116 392 64 595 115
1080 269 430 136 488 157 623 222 210 99 334 203 391 325 75 157 37 311 -116
466 -50 50 -84 73 -175 117 -295 142 -792 268 -1416 357 -45 6 -140 9 -210 7
-104 -3 -136 -8 -177 -27 -90 -40 -147 -116 -149 -199 -1 -36 4 -48 27 -68 38
-33 82 -42 232 -49 253 -12 517 -68 743 -157 154 -61 139 -78 -73 -78 -146 0
-240 12 -530 70 -264 52 -368 64 -495 57 -113 -7 -176 -21 -255 -56 l-50 -23
38 -14 c58 -21 229 -50 457 -79 367 -46 498 -73 629 -131 51 -23 54 -26 38
-41 -30 -30 -253 -29 -527 2 -346 40 -475 30 -599 -46 -30 -18 -33 -22 -18
-30 9 -6 94 -23 189 -39 337 -56 478 -88 478 -111 0 -38 -175 -59 -486 -59
-132 0 -267 -5 -300 -11 -61 -11 -154 -46 -154 -58 0 -4 17 -16 38 -26 52 -26
173 -30 389 -15 208 15 225 11 198 -41 -16 -31 -38 -45 -100 -66 -36 -12 -29
-13 85 -8 698 31 1459 265 1814 558 44 37 48 44 43 76 -2 20 -18 59 -35 86
-36 58 -48 100 -33 110 21 13 101 -45 136 -98 66 -100 73 -236 19 -324 -102
-165 -541 -320 -1394 -493 -950 -192 -1837 -290 -2888 -319 -928 -25 -2365
152 -3487 429 -527 131 -825 274 -864 417 -27 96 -2 232 54 295 29 34 93 78
111 78 25 0 15 -53 -20 -110 -51 -84 -53 -105 -14 -141 122 -113 365 -246 623
-340 326 -121 830 -221 1180 -235 l130 -5 -41 19 c-42 20 -84 64 -84 88 0 21
40 22 285 3 124 -9 176 -9 228 0 121 21 147 45 80 74 -82 35 -123 39 -453 47
-345 8 -432 18 -438 51 -5 27 107 54 516 123 79 13 146 27 149 30 11 11 -18
34 -75 60 -96 42 -216 52 -402 32 -469 -50 -461 -50 -562 -39 -53 6 -102 14
-108 18 -20 12 9 33 90 64 104 41 275 74 565 111 132 16 265 35 295 41 119 22
200 43 200 51 0 13 -85 47 -160 65 -80 20 -273 21 -385 4 -44 -7 -159 -28
-255 -47 -96 -19 -215 -41 -265 -49 -185 -30 -412 -29 -423 3 -8 25 226 110
428 156 226 50 520 86 865 106 99 6 222 13 274 16 l94 6 -6 53 c-13 127 -101
210 -257 244 -59 13 -248 21 -345 15z"/>
</g>
</svg>
