<?xml version="1.0" encoding="UTF-8"?>
<svg version="1.1" xmlns="http://www.w3.org/2000/svg" viewBox="0 0 32 32">
<title>js-square</title>
<path d="M27 2h-22q-1.25 0-2.125 0.875t-0.875 2.125v22q0 1.25 0.875 2.125t2.125 0.875h22q1.25 0 2.125-0.875t0.875-2.125v-22q0-1.25-0.875-2.125t-2.125-0.875zM17.25 23.813q0 2-1.063 3t-2.875 1q-2.813 0-3.938-2.438l2.125-1.25q0.375 0.688 0.688 0.938 0.375 0.375 1.031 0.375t1.031-0.344 0.375-1.281v-8.938h2.625v8.938zM23.438 27.813q-1.75 0-3-0.75-1.125-0.75-1.75-1.938l2.125-1.25q1 1.625 2.563 1.625 0.813 0 1.313-0.375t0.5-0.969-0.5-0.969q-0.313-0.25-1.438-0.75l-0.625-0.313q-1.563-0.625-2.313-1.438-0.875-1-0.875-2.5t1.063-2.5 2.813-1q1.313 0 2.219 0.5t1.531 1.625l-2.063 1.313q-0.313-0.625-0.719-0.875t-0.969-0.25-0.906 0.313-0.344 0.844 0.344 0.844 1.281 0.75l0.625 0.25q1.813 0.813 2.625 1.625 0.875 0.938 0.875 2.5 0 1.75-1.219 2.719t-3.156 0.969z"></path>
</svg>
